<svg xmlns="http://www.w3.org/2000/svg" xml:space="preserve" width="100px" height="100px" version="1.1" style="shape-rendering:geometricPrecision; text-rendering:geometricPrecision; image-rendering:optimizeQuality; fill-rule:evenodd; clip-rule:evenodd"
viewBox="0 0 100 100">
   <path fill="#AE0000" d="M76 66c8,-8 15,-19 12,-30 -1,-5 -3,-9 -8,-5 -2,2 -4,6 -4,13l0 22zm-48 1c0,5 -11,-1 -11,-5l0 -28c0,-6 1,-11 -1,-16 -3,-8 -4,3 -13,-4 -7,-6 1,-8 4,-8 6,0 11,4 14,7 7,-9 17,-6 24,1 7,-12 23,-5 28,7 15,-5 47,25 7,59 6,8 10,3 15,10 5,7 -11,4 -20,-7 -6,4 -12,8 -17,10 -4,2 -13,-7 -9,-9 6,-2 13,-6 19,-11 -2,-4 -3,-8 -3,-11l0 -32c0,-5 0,-17 -6,-12 -4,2 -7,8 -7,16l0 33c0,5 -11,-1 -11,-5l0 -33c0,-5 1,-16 -6,-11 -6,4 -7,14 -7,20l0 29z"/>
</svg>
