<svg xmlns="http://www.w3.org/2000/svg" xml:space="preserve" width="100px" height="100px" version="1.1" style="shape-rendering:geometricPrecision; text-rendering:geometricPrecision; image-rendering:optimizeQuality; fill-rule:evenodd; clip-rule:evenodd"
viewBox="0 0 100 100">
   <path fill="#AE0000" d="M85 55c0,-13 -11,-8 -15,-4 -5,5 -5,13 -2,17 3,2 17,-1 17,-13zm-73 19c-7,-6 -2,-9 5,-4 8,7 26,8 38,7 4,0 8,-1 12,-3 -20,-12 -14,-36 5,-36 15,0 34,18 19,36 -14,17 -59,17 -79,0zm3 -29c0,5 1,8 6,8 12,0 16,-15 11,-21 -3,-2 -17,1 -17,13zm73 -19c7,6 2,9 -5,4 -8,-7 -26,-8 -38,-7 -4,0 -8,1 -12,3 20,12 14,36 -5,36 -15,0 -34,-18 -19,-36 14,-17 59,-17 79,0z"/>
</svg>
