<svg xmlns="http://www.w3.org/2000/svg" xml:space="preserve" width="100px" height="100px" version="1.1" style="shape-rendering:geometricPrecision; text-rendering:geometricPrecision; image-rendering:optimizeQuality; fill-rule:evenodd; clip-rule:evenodd"
viewBox="0 0 100 100">
   <path fill="#AE0000" d="M12 46c-3,2 -13,-7 -9,-9l26 -16c2,-2 8,2 10,5l3 7 12 -12c1,-2 7,0 10,6l3 6 12 -12c1,-2 7,0 10,7l8 16c3,6 -6,3 -9,-3l-4 -7 -11 13c-2,2 -8,-2 -10,-6l-4 -7 -11 13c-2,2 -8,-2 -10,-6l-5 -9 -21 14zm0 32c-3,2 -13,-6 -9,-8l26 -17c2,-1 8,2 10,6l3 7 12 -13c2,-2 8,2 10,6l0 0 3 7 12 -13c2,-2 8,2 10,6l0 0 8 17c3,6 -6,4 -9,-2l-4 -7 -11 12c-2,2 -8,-1 -10,-5l-4 -7 -11 12c-2,2 -8,-1 -10,-5l-5 -9 -21 13z"/>
</svg>
