<svg xmlns="http://www.w3.org/2000/svg" xml:space="preserve" width="100px" height="100px" version="1.1" style="shape-rendering:geometricPrecision; text-rendering:geometricPrecision; image-rendering:optimizeQuality; fill-rule:evenodd; clip-rule:evenodd"
viewBox="0 0 100 100">
   <path fill="#AE0000" d="M68 68c-2,3 -4,6 -6,9 13,5 28,-2 26,-14 0,-5 -2,-6 -6,-5 -6,1 -11,5 -14,10zm-32 25c-6,-1 -12,-10 -6,-9 11,1 16,-3 19,-10 -4,-4 -7,-10 -7,-17l0 -28c0,-5 0,-15 -7,-11 -5,4 -6,12 -6,19l0 31c0,5 -11,-1 -11,-6l0 -33c0,-4 -1,-8 -2,-11 -3,-7 -4,4 -12,-3 -7,-6 0,-8 4,-8 5,0 10,3 14,7 9,-14 31,-1 31,21l0 30c0,1 0,2 0,2 20,-36 51,-11 46,8 -2,7 -10,13 -20,13 -6,0 -13,-2 -19,-6 -5,7 -10,12 -24,11z"/>
</svg>
