<svg xmlns="http://www.w3.org/2000/svg" xml:space="preserve" width="100px" height="100px" version="1.1" style="shape-rendering:geometricPrecision; text-rendering:geometricPrecision; image-rendering:optimizeQuality; fill-rule:evenodd; clip-rule:evenodd"
viewBox="0 0 100 100">
   <path fill="#AE0000" d="M14 55c-5,0 -13,-9 -7,-9l25 0c-1,-13 -6,-29 -16,-36 -7,-5 -4,-10 3,-5 14,9 22,24 24,41l14 0c0,-17 7,-34 20,-43 3,-2 14,6 10,9 -10,7 -17,20 -18,34l17 0c5,0 13,9 7,9l-25 0c1,13 6,28 16,35 7,5 4,10 -3,5 -14,-9 -22,-24 -24,-40l-14 0c0,16 -7,33 -20,42 -3,2 -14,-6 -10,-9 10,-7 16,-20 18,-33l-17 0z"/>
</svg>
