<svg xmlns="http://www.w3.org/2000/svg" xml:space="preserve" width="40px" height="40px" version="1.1" style="shape-rendering:geometricPrecision; text-rendering:geometricPrecision; image-rendering:optimizeQuality; fill-rule:evenodd; clip-rule:evenodd" viewBox="0 0 100 100">
   <path fill="#AE0000" d="M50 87c-3,-1 -6,-4 -6,-6 0,-12 0,-53 -11,-59 -11,-5 -21,5 -21,17 0,4 1,6 3,7 1,1 6,0 7,-7 2,-4 13,3 12,7 -7,22 -43,1 -31,-24 6,-12 19,-12 30,-7 7,4 12,10 16,17 3,-8 7,-14 13,-17 19,-9 38,6 38,24 -1,12 -11,20 -22,15 -10,-5 -17,-19 -7,-16 3,2 6,4 7,6 0,2 -2,3 0,2 12,-2 12,-21 6,-25 -2,-1 -9,0 -12,2 -17,8 -16,46 -16,64 0,2 -5,1 -6,0z"/>
</svg>