<svg xmlns="http://www.w3.org/2000/svg" xml:space="preserve" width="100px" height="100px" version="1.1" style="shape-rendering:geometricPrecision; text-rendering:geometricPrecision; image-rendering:optimizeQuality; fill-rule:evenodd; clip-rule:evenodd"
viewBox="0 0 100 100">
   <path fill="#AE0000" d="M46 74c6,0 12,0 17,1l0 -49c-9,1 -18,0 -26,-1l0 49c3,0 6,0 9,0zm43 11c7,5 5,11 -2,6 -18,-11 -52,-10 -70,2 -3,2 -13,-7 -10,-9 5,-3 12,-6 18,-8l0 -54c-24,-9 -21,-19 -12,-13 18,12 52,10 70,-2 3,-2 13,7 10,9 -5,3 -12,6 -18,8l0 54c5,2 10,5 14,7z"/>
</svg>
