<svg xmlns="http://www.w3.org/2000/svg" xml:space="preserve" width="100px" height="100px" version="1.1" style="shape-rendering:geometricPrecision; text-rendering:geometricPrecision; image-rendering:optimizeQuality; fill-rule:evenodd; clip-rule:evenodd"
viewBox="0 0 100 100">
   <path fill="#AE0000" d="M31 53c-7,0 -13,7 -13,14 0,5 1,8 6,8 7,0 13,-6 13,-14 0,-5 -1,-8 -6,-8zm-3 -9c-15,-26 9,-48 33,-38 14,6 24,21 18,35 -5,11 -13,21 -14,33 -1,16 11,16 17,10 3,-3 14,5 11,8 -12,12 -41,1 -39,-25 1,-16 15,-29 15,-41 0,-27 -44,-10 -32,18 4,9 12,12 12,23 0,10 -8,17 -18,17 -17,0 -33,-22 -19,-35 4,-4 10,-6 16,-5z"/>
</svg>
