<svg xmlns="http://www.w3.org/2000/svg" xml:space="preserve" width="100px" height="100px" version="1.1" style="shape-rendering:geometricPrecision; text-rendering:geometricPrecision; image-rendering:optimizeQuality; fill-rule:evenodd; clip-rule:evenodd"
viewBox="0 0 100 100">
   <path fill="#AE0000" d="M11 95c-6,0 -14,-10 -8,-10l86 0c6,0 14,10 8,10l-86 0zm0 -28c-6,0 -14,-9 -8,-9l24 0c-22,-22 -7,-53 19,-53 19,0 38,18 38,35 0,7 -2,13 -5,18 8,0 13,-2 18,5 3,2 2,4 0,4l-30 0c-9,0 -14,-8 -11,-9 23,-9 19,-43 -2,-43 -21,0 -32,23 -22,38 4,6 7,4 11,9 2,1 4,5 0,5l-32 0z"/>
</svg>
