<svg xmlns="http://www.w3.org/2000/svg" xml:space="preserve" width="100px" height="100px" version="1.1" style="shape-rendering:geometricPrecision; text-rendering:geometricPrecision; image-rendering:optimizeQuality; fill-rule:evenodd; clip-rule:evenodd"
viewBox="0 0 100 100">
   <path fill="#AE0000" d="M54 50c-24,0 -29,37 -8,37 24,0 29,-37 8,-37zm37 -41c4,5 -2,4 -3,5 -2,0 -4,1 -6,3 -8,9 -1,16 -7,24 -2,3 -5,5 -9,7 23,18 11,48 -12,48 -24,0 -43,-30 -25,-48 1,-1 3,-3 5,-4 -4,-2 -6,-4 -9,-8 -6,-8 0,-19 -5,-22 -2,-1 -7,0 -11,-5 -2,-3 -2,-5 1,-5l0 0c10,0 23,11 24,22 0,6 -2,11 3,13 8,4 22,2 28,-6 4,-6 -3,-15 6,-24 6,-6 15,-7 20,0z"/>
</svg>
