<svg xmlns="http://www.w3.org/2000/svg" xml:space="preserve" width="100px" height="100px" version="1.1" style="shape-rendering:geometricPrecision; text-rendering:geometricPrecision; image-rendering:optimizeQuality; fill-rule:evenodd; clip-rule:evenodd"
viewBox="0 0 100 100">
   <path fill="#AE0000" d="M25 70c0,4 -11,-1 -11,-6l0 -33c0,-3 0,-5 -1,-7 -1,-9 -4,-4 -9,-7 -3,-3 -4,-5 -2,-6 2,-1 4,-2 6,-2 5,0 7,3 10,7 6,-9 17,-6 23,1 9,-15 32,-3 32,21l0 31c0,4 0,5 8,3 -9,-5 -6,-10 0,-6l13 7c3,2 6,5 4,7l0 0 -13 10c-3,3 -12,-5 -10,-8l2 -1c-8,-2 -15,-8 -15,-17l0 -31c0,-6 1,-17 -7,-13 -3,3 -6,8 -6,17l0 33c0,4 -11,-1 -11,-6l0 -33c0,-5 0,-15 -7,-11 -4,3 -6,10 -6,18l0 32z"/>
</svg>
